<svg xmlns="http://www.w3.org/2000/svg" viewBox="0 0 400 400" width="400" height="400">
  <defs>
    <radialGradient id="sealGlow" cx="0.4" cy="0.35" r="0.6">
      <stop offset="0%" stop-color="#5D4037" stop-opacity="0.4"/>
      <stop offset="100%" stop-color="#3E2723" stop-opacity="0"/>
    </radialGradient>
  </defs>

  <!-- Cream background -->
  <rect width="400" height="400" fill="#F5F0E6"/>

  <!-- Wax seal - centered -->
  <g transform="translate(200, 200) scale(5.2) translate(-32, -32)">
    <path
      d="M 32 2.5 C 37 2, 42 3.8, 46.5 6 C 51.5 8.5, 55.5 12, 58.5 16.5 C 60.5 20, 62 24.5, 62 29 C 62.2 34, 61.5 38.5, 59.5 42.5 C 57 47, 53.5 51, 49 54 C 44.5 57.2, 40 59.5, 35.5 61 C 31 62, 26 61.5, 21.5 59.5 C 17 57.5, 13 54, 10 49.5 C 7 45, 4.5 40, 3.5 35 C 2.5 30, 2.5 25, 4.5 20.5 C 6.5 16, 9.5 12, 13.5 8.5 C 17.5 5.5, 22 3.5, 27 2.8 C 29.5 2.4, 30.5 2.4, 32 2.5 Z"
      fill="#3E2723"
    />
    <path
      d="M 32 2.5 C 37 2, 42 3.8, 46.5 6 C 51.5 8.5, 55.5 12, 58.5 16.5 C 60.5 20, 62 24.5, 62 29 C 62.2 34, 61.5 38.5, 59.5 42.5 C 57 47, 53.5 51, 49 54 C 44.5 57.2, 40 59.5, 35.5 61 C 31 62, 26 61.5, 21.5 59.5 C 17 57.5, 13 54, 10 49.5 C 7 45, 4.5 40, 3.5 35 C 2.5 30, 2.5 25, 4.5 20.5 C 6.5 16, 9.5 12, 13.5 8.5 C 17.5 5.5, 22 3.5, 27 2.8 C 29.5 2.4, 30.5 2.4, 32 2.5 Z"
      fill="url(#sealGlow)"
    />
    <!-- CC letters -->
    <text x="20" y="40" font-family="Georgia, 'Times New Roman', serif" font-size="28" font-weight="400" fill="#F5F0E6">C</text>
    <text x="36" y="40" font-family="Georgia, 'Times New Roman', serif" font-size="28" font-weight="400" fill="#F5F0E6">C</text>
  </g>
</svg>
