<svg xmlns="http://www.w3.org/2000/svg" viewBox="0 0 1584 396" width="1584" height="396">
  <!-- Charcoal background -->
  <rect width="1584" height="396" fill="#3E2723" />
  <!-- Subtle top and bottom border lines -->
  <rect x="0" y="0" width="1584" height="1" fill="#F5F0E6" opacity="0.08" />
  <rect x="0" y="395" width="1584" height="1" fill="#F5F0E6" opacity="0.08" />
  <!-- Decorative wax seal - large, subtle, right side -->
  <g transform="translate(1280, 198) scale(4.5) translate(-32, -32)" opacity="0.06">
    <path
      d="M 32 2.5 C 37 2, 42 3.8, 46.5 6 C 51.5 8.5, 55.5 12, 58.5 16.5 C 60.5 20, 62 24.5, 62 29 C 62.2 34, 61.5 38.5, 59.5 42.5 C 57 47, 53.5 51, 49 54 C 44.5 57.2, 40 59.5, 35.5 61 C 31 62, 26 61.5, 21.5 59.5 C 17 57.5, 13 54, 10 49.5 C 7 45, 4.5 40, 3.5 35 C 2.5 30, 2.5 25, 4.5 20.5 C 6.5 16, 9.5 12, 13.5 8.5 C 17.5 5.5, 22 3.5, 27 2.8 C 29.5 2.4, 30.5 2.4, 32 2.5 Z"
      fill="#F5F0E6"
    />
  </g>
  <!-- Brand name -->
  <text x="792" y="155" text-anchor="middle" font-family="Georgia, 'Times New Roman', serif" font-size="56" font-weight="400" letter-spacing="6" fill="#F5F0E6">
    Cire Chemistry
  </text>
  <!-- Thin decorative line -->
  <rect x="742" y="178" width="100" height="1" fill="#C4A4A4" opacity="0.5" />
  <!-- Tagline -->
  <text x="792" y="215" text-anchor="middle" font-family="Georgia, 'Helvetica Neue', sans-serif" font-size="16" font-weight="400" letter-spacing="4" fill="#F5F0E6" opacity="0.6">
    INDEPENDENT COSMETIC FORMULATION LAB
  </text>
  <!-- Service categories -->
  <text x="792" y="260" text-anchor="middle" font-family="Georgia, 'Helvetica Neue', sans-serif" font-size="14" font-weight="400" letter-spacing="3" fill="#C4A4A4" opacity="0.5">
    SKINCARE · HAIRCARE · BODY CARE · COSMETICS
  </text>
</svg>
