<svg xmlns="http://www.w3.org/2000/svg" viewBox="0 0 1584 396" width="1584" height="396">
  <defs>
    <linearGradient id="bg" x1="0" y1="0" x2="1" y2="0.7">
      <stop offset="0%" stop-color="#3E2723"/>
      <stop offset="60%" stop-color="#4A3029"/>
      <stop offset="100%" stop-color="#5D4037"/>
    </linearGradient>
    <radialGradient id="sealGlow" cx="0.4" cy="0.35" r="0.6">
      <stop offset="0%" stop-color="#5D4037" stop-opacity="0.4"/>
      <stop offset="100%" stop-color="#3E2723" stop-opacity="0"/>
    </radialGradient>
  </defs>

  <!-- Background with gradient -->
  <rect width="1584" height="396" fill="url(#bg)"/>

  <!-- Subtle top accent line -->
  <rect x="0" y="0" width="1584" height="2" fill="#C4929B" opacity="0.25"/>

  <!-- Large decorative wax seal - left side, vertically centered -->
  <g transform="translate(65, 38) scale(5)">
    <!-- Seal shape -->
    <path
      d="M 32 2.5 C 37 2, 42 3.8, 46.5 6 C 51.5 8.5, 55.5 12, 58.5 16.5 C 60.5 20, 62 24.5, 62 29 C 62.2 34, 61.5 38.5, 59.5 42.5 C 57 47, 53.5 51, 49 54 C 44.5 57.2, 40 59.5, 35.5 61 C 31 62, 26 61.5, 21.5 59.5 C 17 57.5, 13 54, 10 49.5 C 7 45, 4.5 40, 3.5 35 C 2.5 30, 2.5 25, 4.5 20.5 C 6.5 16, 9.5 12, 13.5 8.5 C 17.5 5.5, 22 3.5, 27 2.8 C 29.5 2.4, 30.5 2.4, 32 2.5 Z"
      fill="#C4929B" opacity="0.2"
    />
    <!-- CC letters in seal -->
    <text x="19" y="40" font-family="Georgia, 'Times New Roman', serif" font-size="28" font-weight="400" fill="#F5F0E6" opacity="0.35">C</text>
    <text x="35" y="40" font-family="Georgia, 'Times New Roman', serif" font-size="28" font-weight="400" fill="#F5F0E6" opacity="0.35">C</text>
  </g>

  <!-- Brand name -->
  <text x="500" y="172" font-family="Georgia, 'Times New Roman', serif" font-size="78" font-weight="400" fill="#F5F0E6" letter-spacing="8">CIRE</text>
  <text x="500" y="250" font-family="Georgia, 'Times New Roman', serif" font-size="78" font-weight="400" fill="#F5F0E6" letter-spacing="8">CHEMISTRY</text>

  <!-- Rose accent line -->
  <rect x="502" y="268" width="70" height="2" fill="#C4929B" opacity="0.8"/>

  <!-- Tagline -->
  <text x="504" y="306" font-family="Helvetica, Arial, sans-serif" font-size="18" fill="#C4929B" letter-spacing="5" font-weight="400">INDEPENDENT COSMETIC FORMULATION LAB</text>

  <!-- Services -->
  <text x="504" y="348" font-family="Helvetica, Arial, sans-serif" font-size="14" fill="#F5F0E6" letter-spacing="3" opacity="0.6">SKINCARE  ·  HAIRCARE  ·  BODY CARE  ·  COSMETICS</text>

  <!-- Subtle bottom accent line -->
  <rect x="0" y="394" width="1584" height="2" fill="#C4929B" opacity="0.15"/>
</svg>
