<svg xmlns="http://www.w3.org/2000/svg" viewBox="0 0 64 64" width="64" height="64">
  <title>Cire Chemistry Logo</title>
  <path
    d="M 32 2.5 C 37 2, 42 3.8, 46.5 6 C 51.5 8.5, 55.5 12, 58.5 16.5 C 60.5 20, 62 24.5, 62 29 C 62.2 34, 61.5 38.5, 59.5 42.5 C 57 47, 53.5 51, 49 54 C 44.5 57.2, 40 59.5, 35.5 61 C 31 62, 26 61.5, 21.5 59.5 C 17 57.5, 13 54, 10 49.5 C 7 45, 4.5 40, 3.5 35 C 2.5 30, 2.5 25, 4.5 20.5 C 6.5 16, 9.5 12, 13.5 8.5 C 17.5 5.5, 22 3.5, 27 2.8 C 29.5 2.4, 30.5 2.4, 32 2.5 Z"
    fill="#3E2723"
  />
  <path
    d="M 30 19 C 28 17.5, 25.5 17, 23 17 C 16.5 17, 13 23, 13 32 C 13 41, 16.5 47, 23 47 C 25.5 47, 28 46.5, 30 45 L 29.5 42.5 C 28 43.5, 26 44, 23.5 44 C 19 44, 17.5 39.5, 17.5 32 C 17.5 24.5, 19 20, 23.5 20 C 26 20, 28 20.5, 29.5 21.5 Z"
    fill="#F5F0E6"
  />
  <path
    d="M 48 19 C 46 17.5, 43.5 17, 41 17 C 34.5 17, 31 23, 31 32 C 31 41, 34.5 47, 41 47 C 43.5 47, 46 46.5, 48 45 L 47.5 42.5 C 46 43.5, 44 44, 41.5 44 C 37 44, 35.5 39.5, 35.5 32 C 35.5 24.5, 37 20, 41.5 20 C 44 20, 46 20.5, 47.5 21.5 Z"
    fill="#F5F0E6"
  />
</svg>
